# xmcd
#
# Track frame offsets: 
#        150
#        17110
#        35462
#        48480
#        60440
#        73402
#        86835
#        98052
#        108992
#        122370
#        131065
#        146882
#        159187
#        170712
#        182612
#        194577
#        208875
#
# Disc length: 2932 seconds
#
# Revision: 8
# Processed by: cddbd v1.5.2PL0 Copyright (c) Steve Scherf et al.
# Submitted via: ExactAudioCopy v1.0b1
#
DISCID=fa0b7211
DTITLE=Various Artist - Disc 1
DYEAR=1999
DGENRE=Reggae
TTITLE0=Gregory Isaacs - Loving Pauper
TTITLE1=Gregory Isaacs - My Time
TTITLE2=Gregory Isaacs - Don't Go
TTITLE3=Gregory Isaacs - Coming Home
TTITLE4=Gregory Isaacs - Promised Land
TTITLE5=Gregory Isaacs - Give Me Land
TTITLE6=Gregory Isaacs - Love is Overdue
TTITLE7=Gregory Isaacs - Way of Life
TTITLE8=Gregory Isaacs - Lonely Man
TTITLE9=Delroy Wilson - Cool Operator
TTITLE10=Delroy Wilson - Rascal Man
TTITLE11=Delroy Wilson - Better Must Come
TTITLE12=Delroy Wilson - Baby I Need Your Loving
TTITLE13=Delroy Wilson - Pretty Girl
TTITLE14=Delroy Wilson - My Baby is Gone
TTITLE15=Delroy Wilson - Living in the Footsteps
TTITLE16=Delroy Wilson - It's a Shame
EXTD=Disc 1 of 3
EXTT0=
EXTT1=
EXTT2=
EXTT3=
EXTT4=
EXTT5=
EXTT6=
EXTT7=
EXTT8=
EXTT9=
EXTT10=
EXTT11=
EXTT12=
EXTT13=
EXTT14=
EXTT15=
EXTT16=
PLAYORDER=
